<?xml version="1.0" encoding="utf-8"?>
<!-- Generator: Adobe Illustrator 26.2.1, SVG Export Plug-In . SVG Version: 6.00 Build 0)  -->
<svg version="1.1" id="Artwork" xmlns="http://www.w3.org/2000/svg" xmlns:xlink="http://www.w3.org/1999/xlink" x="0px" y="0px"
	 viewBox="0 0 326.26 84.93" style="enable-background:new 0 0 326.26 84.93;" xml:space="preserve">
<style type="text/css">
	.st0{fill:#30EA03;}
	.st1{fill:#231F20;}
</style>
<g>
	<rect x="164.58" y="37.54" class="st0" width="36.04" height="9.86"/>
	<path class="st1" d="M101.26,53.87l3.05,9.66h11.37L101.95,21.4H85.04L71.31,63.53h11.37l3.05-9.66H101.26z M88.94,44.3l4.55-13.96
		l4.55,13.96H88.94z M231.45,20.4c-12.85,0-23.27,9.88-23.27,22.06s10.42,22.06,23.27,22.06s23.27-9.88,23.27-22.06
		S244.3,20.4,231.45,20.4z M231.45,55.05c-6.95,0-12.58-5.63-12.58-12.58s5.63-12.58,12.58-12.58s12.58,5.63,12.58,12.58
		S238.4,55.05,231.45,55.05z M123.01,21.4h10.7v32.27h23.33v9.86h-34.03C123.01,63.53,123.01,21.4,123.01,21.4z M164.58,21.4h36.05
		v9.86h-36.05V21.4z M164.58,53.67h36.05v9.86h-36.05V53.67z M272.99,63.53h-10.7V21.4h10.7l21.17,26.39V21.4h10.7v42.13h-10.7
		l-21.17-26.39V63.53z M53.28,21.4h10.7v42.13h-10.7V47.39H32.1v16.14H21.4V21.4h10.7v16.13h21.17V21.4H53.28z"/>
</g>
</svg>
